<svg width="528" height="170" viewBox="0 0 528 170" fill="none" xmlns="http://www.w3.org/2000/svg">
<path d="M37.1002 75.9943L21.9016 48.0399L27.835 43.4641C36.0048 58.4956 50.026 67.571 65.0603 67.571H67.2602V39.5622C67.2694 17.7161 52.3902 0 34.0331 0C15.676 0 0.796875 17.7161 0.796875 39.5731V80.983H30.966L46.1647 108.937L40.2313 113.513C32.0614 98.4817 18.0403 89.4063 3.00593 89.4063H0.796875V117.415C0.796875 139.272 15.676 156.988 34.0331 156.988C52.3902 156.988 67.2694 139.272 67.2694 117.415V76.0052H37.1002V75.9943Z" fill="#E32929"/>
<path d="M498.048 154.726C491.138 154.726 485.632 153.43 481.529 150.837C477.426 148.245 474.489 144.508 472.719 139.626C470.948 134.744 470.062 128.868 470.062 121.998V82.9196C470.062 73.8898 472.654 67.0635 477.836 62.4406C483.019 57.7745 490.145 55.4414 499.215 55.4414C517.872 55.4414 527.201 64.6008 527.201 82.9196V89.9836C527.201 98.5381 527.114 104.284 526.941 107.222H493.255V126.016C493.255 127.745 493.363 129.451 493.579 131.136C493.794 132.778 494.27 134.139 495.004 135.219C495.781 136.299 497.012 136.839 498.696 136.839C501.115 136.839 502.626 135.802 503.231 133.728C503.836 131.611 504.138 128.868 504.138 125.498V116.166H527.201V121.674C527.201 128.933 526.294 135.024 524.48 139.95C522.709 144.832 519.686 148.526 515.41 151.032C511.178 153.495 505.39 154.726 498.048 154.726ZM493.125 95.6866H504.138V82.5956C504.138 79.096 503.706 76.5901 502.842 75.078C501.979 73.5226 500.683 72.7449 498.955 72.7449C497.098 72.7449 495.652 73.4794 494.615 74.9483C493.622 76.4173 493.125 78.9664 493.125 82.5956V95.6866Z" fill="#E32929"/>
<path d="M434.783 154.726C423.874 154.726 416.126 151.939 411.537 146.366C406.991 140.792 404.719 132.605 404.719 121.804V91.863C404.719 83.7405 405.585 76.979 407.316 71.5784C409.048 66.1778 412.078 62.1381 416.407 59.4594C420.736 56.7808 426.753 55.4414 434.459 55.4414C439.827 55.4414 444.632 56.3919 448.874 58.2929C453.16 60.1939 456.537 62.9806 459.004 66.653C461.472 70.3254 462.705 74.8187 462.705 80.1329V94.9737H439.004V81.3642C439.004 79.1176 438.68 77.2382 438.03 75.726C437.381 74.1707 435.974 73.393 433.809 73.393C430 73.393 428.095 76.0933 428.095 81.4939V128.609C428.095 130.596 428.528 132.432 429.394 134.117C430.26 135.759 431.688 136.58 433.68 136.58C435.714 136.58 437.121 135.781 437.9 134.182C438.723 132.54 439.134 130.639 439.134 128.479V112.148H462.705V129.127C462.705 134.484 461.493 139.086 459.069 142.931C456.688 146.733 453.398 149.649 449.199 151.68C445 153.711 440.195 154.726 434.783 154.726Z" fill="#E32929"/>
<path d="M339.102 153.877V56.4803H362.32V68.8822C363.185 65.1595 364.785 61.9995 367.119 59.4022C369.497 56.7617 372.783 55.4414 376.977 55.4414C383.722 55.4414 388.608 57.5192 391.635 61.6748C394.705 65.8304 396.24 71.5227 396.24 78.7517V153.877H373.345V81.1542C373.345 79.2496 372.956 77.4964 372.178 75.8948C371.4 74.2498 370.059 73.4274 368.157 73.4274C366.384 73.4274 365.066 74.055 364.201 75.3104C363.379 76.5224 362.86 78.0591 362.644 79.9205C362.428 81.7386 362.32 83.5567 362.32 85.3747V153.877H339.102Z" fill="#E32929"/>
<path d="M301.463 154.726C294.552 154.726 289.046 153.43 284.943 150.837C280.84 148.245 277.903 144.508 276.133 139.626C274.362 134.744 273.477 128.868 273.477 121.998V82.9196C273.477 73.8898 276.068 67.0635 281.25 62.4406C286.433 57.7745 293.559 55.4414 302.629 55.4414C321.286 55.4414 330.615 64.6008 330.615 82.9196V89.9836C330.615 98.5381 330.528 104.284 330.355 107.222H296.669V126.016C296.669 127.745 296.777 129.451 296.993 131.136C297.209 132.778 297.684 134.139 298.418 135.219C299.195 136.299 300.426 136.839 302.11 136.839C304.529 136.839 306.041 135.802 306.645 133.728C307.25 131.611 307.552 128.868 307.552 125.498V116.166H330.615V121.674C330.615 128.933 329.708 135.024 327.894 139.95C326.123 144.832 323.1 148.526 318.824 151.032C314.592 153.495 308.805 154.726 301.463 154.726ZM296.539 95.6866H307.552V82.5956C307.552 79.096 307.12 76.5901 306.256 75.078C305.393 73.5226 304.097 72.7449 302.37 72.7449C300.512 72.7449 299.066 73.4794 298.029 74.9483C297.036 76.4173 296.539 78.9664 296.539 82.5956V95.6866Z" fill="#E32929"/>
<path d="M226.552 155.009C221.369 155.009 217.396 153.927 214.632 151.763C211.911 149.598 210.054 146.59 209.06 142.737C208.067 138.841 207.57 134.296 207.57 129.102V56.5732H230.892V126.374C230.892 130.27 231.194 132.997 231.799 134.556C232.404 136.071 233.829 136.828 236.075 136.828C238.493 136.828 240.005 135.746 240.609 133.582C241.257 131.417 241.581 128.625 241.581 125.206V56.5732H264.708V153.97H241.516V143.581C240.048 147.304 238.277 150.139 236.204 152.087C234.174 154.035 230.957 155.009 226.552 155.009Z" fill="#E32929"/>
<path d="M175.418 170V143.469C174.118 146.972 172.384 149.74 170.217 151.772C168.094 153.805 164.995 154.821 160.921 154.821C156.414 154.821 152.838 153.999 150.195 152.356C147.551 150.713 145.579 148.442 144.279 145.545C142.979 142.647 142.112 139.252 141.679 135.36C141.289 131.468 141.094 127.295 141.094 122.84V80.5458C141.094 73.0642 142.416 67.0097 145.059 62.3824C147.746 57.7551 152.275 55.4414 158.646 55.4414C163.37 55.4414 166.988 56.4577 169.502 58.4903C172.059 60.4796 174.031 63.269 175.418 66.8584V56.4793H199.08V170H175.418ZM169.827 136.658C171.864 136.658 173.294 135.598 174.118 133.479C174.984 131.36 175.418 128.398 175.418 124.592V83.5298C175.418 81.2377 175.071 78.9889 174.378 76.7834C173.727 74.5346 172.254 73.4102 169.957 73.4102C167.443 73.4102 165.862 74.4697 165.212 76.5888C164.561 78.7078 164.236 81.0215 164.236 83.5298V124.462C164.236 132.592 166.1 136.658 169.827 136.658Z" fill="#E32929"/>
<path d="M104.025 154.726C97.1149 154.726 91.6084 153.43 87.5055 150.837C83.4027 148.245 80.4659 144.508 78.6951 139.626C76.9244 134.744 76.0391 128.868 76.0391 121.998V82.9196C76.0391 73.8898 78.6304 67.0635 83.8129 62.4406C88.9955 57.7745 96.1216 55.4414 105.191 55.4414C123.848 55.4414 133.177 64.6008 133.177 82.9196V89.9836C133.177 98.5381 133.091 104.284 132.918 107.222H99.2312V126.016C99.2312 127.745 99.3391 129.451 99.5551 131.136C99.771 132.778 100.246 134.139 100.98 135.219C101.758 136.299 102.989 136.839 104.673 136.839C107.091 136.839 108.603 135.802 109.208 133.728C109.812 131.611 110.115 128.868 110.115 125.498V116.166H133.177V121.674C133.177 128.933 132.27 135.024 130.456 139.95C128.686 144.832 125.662 148.526 121.387 151.032C117.154 153.495 111.367 154.726 104.025 154.726ZM99.1016 95.6866H110.115V82.5956C110.115 79.096 109.683 76.5901 108.819 75.078C107.955 73.5226 106.66 72.7449 104.932 72.7449C103.075 72.7449 101.628 73.4794 100.592 74.9483C99.5983 76.4173 99.1016 78.9664 99.1016 82.5956V95.6866Z" fill="#E32929"/>
</svg>
